<?xml version="1.0" standalone="no"?>
<!DOCTYPE svg PUBLIC "-//W3C//DTD SVG 20010904//EN"
 "http://www.w3.org/TR/2001/REC-SVG-20010904/DTD/svg10.dtd">
<svg version="1.0" xmlns="http://www.w3.org/2000/svg"
 width="245.000000pt" height="245.000000pt" viewBox="0 0 245.000000 245.000000"
 preserveAspectRatio="xMidYMid meet">

<g transform="translate(0.000000,245.000000) scale(0.100000,-0.100000)"
fill="#000000" stroke="none">
<path d="M1090 2444 c-212 -39 -291 -64 -424 -132 -329 -169 -565 -481 -642
-852 -25 -118 -25 -354 -1 -470 52 -244 169 -461 338 -629 398 -394 993 -473
1473 -195 308 179 517 469 593 824 24 116 24 352 -1 470 -102 488 -469 859
-956 965 -72 16 -328 28 -380 19z m526 -191 c59 -65 79 -117 78 -208 0 -101
-21 -155 -116 -306 -39 -63 -87 -148 -107 -189 -35 -72 -36 -79 -36 -187 0
-62 -2 -113 -5 -113 -9 0 -124 121 -157 165 -52 69 -76 126 -81 196 -7 105 33
175 163 282 99 82 186 169 206 210 22 43 27 113 10 145 -28 53 -3 56 45 5z
m-476 -367 c0 -2 -15 -34 -32 -72 -29 -61 -33 -78 -32 -154 0 -69 5 -95 26
-140 39 -86 106 -165 242 -289 272 -247 355 -350 391 -486 31 -120 16 -224
-52 -360 -62 -123 -177 -267 -187 -234 -2 8 -9 32 -15 54 -29 106 -144 245
-351 423 -164 141 -315 330 -360 449 -61 163 -22 343 120 554 59 88 250 283
250 255z m-392 -1092 c57 -67 121 -121 412 -351 63 -50 141 -118 172 -151 54
-56 119 -165 106 -177 -11 -12 -215 37 -318 76 -147 55 -231 108 -331 208 -71
70 -94 101 -127 171 -52 109 -72 203 -72 334 0 151 6 157 56 50 25 -54 65
-117 102 -160z"/>
</g>
</svg>
